<?xml version="1.0" encoding="UTF-8"?><svg xmlns="http://www.w3.org/2000/svg" xmlns:xlink="http://www.w3.org/1999/xlink" width="64px" height="64px" viewBox="0 0 64 64" version="1.1"><title>aperture</title><defs><path id="path-1" d="M.06 64V.04H64V64z"/></defs><g id="Page-1" stroke="none" stroke-width="1" fill="none" fill-rule="evenodd"><g id="aperture"><g id="Group-3"><mask id="mask-2" fill="#fff"><use xlink:href="#path-1"/></mask><path d="M64 32c0 17.673-14.327 32-32 32C14.327 64 0 49.673 0 32 0 14.327 14.327 0 32 0c17.673 0 32 14.327 32 32" id="Fill-1" fill="#DEDECA" mask="url(#mask-2)"/></g><path d="M19 35.85l-9.685-9.685A24.063 24.063 0 0 1 19 13.83v22.02" id="Fill-4" fill="#B3B2A4"/><path d="M22.908 44H10.184A23.888 23.888 0 0 1 8 34c0-1.533.15-3.03.425-4.484L22.908 44" id="Fill-5" fill="#B3B2A4"/><path d="M32 58c-1.533 0-3.031-.15-4.484-.425L42 43.092v12.724A23.888 23.888 0 0 1 32 58" id="Fill-6" fill="#B3B2A4"/><path d="M24.165 56.685A24.069 24.069 0 0 1 11.83 47h22.02l-9.685 9.685" id="Fill-7" fill="#B3B2A4"/><path d="M55.575 38.484L41.092 24h12.724A23.888 23.888 0 0 1 56 34c0 1.533-.15 3.03-.425 4.484" id="Fill-8" fill="#B3B2A4"/><path d="M45 54.17V32.15l9.685 9.685A24.063 24.063 0 0 1 45 54.17" id="Fill-9" fill="#B3B2A4"/><path d="M52.17 21H30.15l9.685-9.685A24.069 24.069 0 0 1 52.17 21" id="Fill-10" fill="#B3B2A4"/><path d="M22 24.908V12.184A23.888 23.888 0 0 1 32 10c1.533 0 3.03.15 4.484.425L22 24.908" id="Fill-11" fill="#B3B2A4"/><path d="M19 11.83a24.063 24.063 0 0 0-9.685 12.335L19 33.85V11.83" id="Fill-12" fill="#4C5665"/><path d="M8.425 27.516A24.097 24.097 0 0 0 8 32c0 3.57.785 6.955 2.184 10h12.724L8.425 27.516" id="Fill-13" fill="#4C5665"/><path d="M27.516 55.575C28.969 55.85 30.467 56 32 56c3.57 0 6.955-.785 10-2.184V41.092L27.516 55.575" id="Fill-14" fill="#4C5665"/><path d="M11.83 45a24.063 24.063 0 0 0 12.335 9.685L33.85 45H11.83" id="Fill-15" fill="#4C5665"/><path d="M55.575 36.484C55.85 35.03 56 33.533 56 32c0-3.57-.785-6.955-2.184-10H41.092l14.483 14.484" id="Fill-16" fill="#4C5665"/><path d="M45 52.17a24.063 24.063 0 0 0 9.685-12.335L45 30.15v22.02" id="Fill-17" fill="#4C5665"/><path d="M52.17 19a24.063 24.063 0 0 0-12.335-9.685L30.15 19h22.02" id="Fill-18" fill="#4C5665"/><path d="M36.484 8.425A24.097 24.097 0 0 0 32 8c-3.57 0-6.955.786-10 2.184v12.724L36.484 8.425" id="Fill-19" fill="#4C5665"/></g></g><metadata><rdf:RDF xmlns:rdf="http://www.w3.org/1999/02/22-rdf-syntax-ns#" xmlns:rdfs="http://www.w3.org/2000/01/rdf-schema#" xmlns:dc="http://purl.org/dc/elements/1.1/"><rdf:Description about="https://iconscout.com/legal#licenses" dc:title="aperture" dc:description="aperture" dc:publisher="Iconscout" dc:date="2017-09-25" dc:format="image/svg+xml" dc:language="en"><dc:creator><rdf:Bag><rdf:li>Elegant Themes</rdf:li></rdf:Bag></dc:creator></rdf:Description></rdf:RDF></metadata></svg>